<?xml version="1.0" standalone="no"?>
<!DOCTYPE svg PUBLIC "-//W3C//DTD SVG 20010904//EN"
 "http://www.w3.org/TR/2001/REC-SVG-20010904/DTD/svg10.dtd">
<svg version="1.0" xmlns="http://www.w3.org/2000/svg"
 width="740.000000pt" height="493.000000pt" viewBox="0 0 740.000000 493.000000"
 preserveAspectRatio="xMidYMid meet">

<g transform="translate(0.000000,493.000000) scale(0.100000,-0.100000)"
fill="#000000" stroke="none">
<path d="M3209 3705 c-194 -31 -309 -76 -388 -150 -57 -53 -76 -99 -68 -159
l6 -41 -116 -28 c-443 -107 -921 -400 -1052 -646 -17 -32 -31 -66 -31 -76 0
-23 108 -134 197 -202 40 -31 73 -57 73 -58 0 -2 -37 8 -82 21 -97 28 -111 29
-162 6 l-40 -18 35 -26 c54 -40 263 -157 386 -215 307 -146 546 -205 667 -164
55 19 240 126 307 177 190 146 286 334 277 545 -3 87 -7 103 -42 173 -24 49
-58 97 -92 132 -30 30 -51 54 -48 54 4 0 29 -14 56 -31 67 -43 132 -120 176
-208 34 -69 37 -82 40 -181 7 -190 -48 -347 -165 -471 -104 -110 -208 -169
-360 -206 -38 -9 -69 -17 -70 -18 -2 -1 13 -50 33 -111 51 -159 105 -253 194
-344 106 -108 229 -175 405 -221 116 -30 348 -37 485 -14 155 25 158 31 19 39
-216 11 -346 53 -429 136 -59 59 -87 127 -100 240 -13 113 -24 153 -56 202
-13 21 -24 39 -24 42 0 2 39 7 88 10 340 27 632 89 962 206 291 103 406 140
478 154 69 13 74 13 91 -5 10 -11 89 -120 176 -242 231 -324 320 -438 441
-567 59 -63 110 -114 113 -113 17 6 33 112 34 228 1 156 -11 216 -93 470 -69
214 -79 283 -56 375 23 88 40 115 220 343 86 109 156 199 156 201 0 2 -33 14
-72 27 -60 19 -94 24 -188 24 -164 -1 -174 -4 -663 -203 l-38 -15 -77 79
c-176 182 -428 326 -746 426 -58 18 -106 36 -106 39 0 20 385 22 515 3 l40 -5
-30 26 c-104 91 -348 227 -510 285 -180 64 -281 81 -490 86 -132 2 -216 -1
-276 -11z m188 -599 c19 -36 12 -85 -17 -126 -30 -43 -40 -37 -23 13 17 47 13
100 -11 148 -9 18 -16 34 -16 37 0 12 53 -45 67 -72z m366 5 c31 -70 9 -129
-65 -183 -32 -22 -31 -17 3 33 39 56 43 128 13 204 -16 41 28 -8 49 -54z
m-165 -13 c29 -56 23 -100 -20 -159 -35 -48 -44 -46 -23 4 21 52 19 135 -5
182 -25 49 -25 51 3 33 12 -9 32 -36 45 -60z m451 -3 c33 -49 31 -107 -6 -153
-42 -52 -56 -52 -33 0 23 51 26 115 6 163 -19 44 0 38 33 -10z m-177 3 c36
-51 32 -108 -11 -152 -45 -47 -56 -45 -31 4 22 43 27 128 10 161 -18 32 6 22
32 -13z m354 -104 c8 -44 -10 -89 -48 -115 l-29 -21 23 44 c16 29 23 59 22 95
0 41 3 50 13 42 7 -6 15 -26 19 -45z m184 -60 c0 -40 -18 -80 -49 -108 -26
-24 -26 -20 -1 29 24 47 25 92 5 143 l-15 37 30 -33 c22 -23 30 -42 30 -68z
m-732 -63 c12 -21 22 -54 22 -73 0 -38 -32 -92 -68 -116 l-22 -15 25 54 c26
57 32 119 15 163 -15 40 4 31 28 -13z m-177 -17 c27 -60 19 -103 -27 -149 -50
-50 -57 -43 -22 21 28 50 30 62 24 115 -3 32 -3 59 0 59 3 0 14 -21 25 -46z
m1149 -29 c0 -32 -11 -50 -44 -75 -19 -15 -19 -14 -3 17 10 18 17 54 17 80 1
44 2 47 15 29 8 -11 15 -34 15 -51z m-674 15 c23 -34 26 -47 22 -92 -5 -45
-11 -57 -43 -85 -21 -18 -42 -33 -47 -33 -4 0 6 25 23 56 28 49 31 61 25 109
-3 29 -9 60 -12 69 -11 29 5 17 32 -24z m164 -33 c19 -24 25 -43 25 -83 0 -54
-22 -91 -68 -116 -17 -8 -16 -6 2 30 29 58 35 110 18 160 -17 50 -11 52 23 9z
m151 -29 c43 -53 31 -119 -30 -171 -28 -23 -30 -28 -24 -76 7 -59 -9 -91 -57
-116 -31 -16 -41 -7 -16 15 25 20 49 97 43 134 -4 26 -2 33 10 32 40 -3 79
135 53 185 -14 26 -2 24 21 -3z m-2002 -12 c91 -47 50 -186 -55 -186 -89 0
-127 134 -51 180 38 24 68 25 106 6z m2251 -94 c0 -30 -17 -63 -44 -84 -33
-27 -37 -21 -14 18 14 25 20 52 20 91 l0 56 19 -29 c10 -16 19 -39 19 -52z
m179 -29 c12 -41 -10 -88 -49 -108 l-32 -17 27 36 c17 22 29 53 33 81 5 51 9
52 21 8z m-943 -40 c34 -78 3 -176 -68 -214 -12 -7 -10 3 10 39 21 37 27 61
27 112 0 36 -4 81 -8 100 -8 34 -7 34 9 15 9 -11 22 -34 30 -52z m-206 -61 c0
-52 -20 -94 -59 -121 -39 -28 -47 -26 -22 6 31 39 54 126 46 176 l-6 42 20
-30 c13 -19 21 -46 21 -73z m475 58 c8 -16 15 -47 15 -69 0 -33 -7 -49 -36
-81 -20 -22 -39 -39 -41 -36 -2 2 6 23 19 47 17 33 23 60 23 107 0 34 1 62 2
62 1 0 9 -13 18 -30z m384 -123 c1 -20 -10 -40 -33 -63 -47 -47 -62 -43 -26 8
17 23 33 60 37 82 5 32 8 36 14 21 4 -11 8 -33 8 -48z m168 4 c5 -36 2 -44
-30 -76 -36 -36 -74 -51 -45 -17 28 32 48 81 48 119 0 49 19 31 27 -26z m143
-42 c0 -44 -19 -75 -56 -93 -55 -26 -61 -19 -21 22 38 38 64 101 52 125 -4 6
1 3 9 -7 9 -11 16 -32 16 -47z m-274 -119 c-6 -36 -45 -80 -72 -80 -10 0 -6
12 16 39 20 25 32 51 33 75 2 32 3 34 15 19 8 -11 11 -32 8 -53z m-350 4 c8
-45 -12 -92 -50 -115 -47 -29 -50 -23 -14 27 26 37 33 56 33 94 0 37 3 46 12
38 7 -5 15 -25 19 -44z m-691 -20 c11 -72 -42 -145 -125 -169 -21 -7 -17 1 26
47 50 55 74 108 74 164 1 39 17 12 25 -42z m189 -3 c16 -54 10 -104 -18 -146
-19 -28 -78 -69 -116 -80 -22 -6 -19 0 21 41 65 68 83 107 83 181 1 33 4 59 8
57 4 -3 14 -27 22 -53z m162 -29 c9 -45 -16 -96 -58 -122 -53 -32 -63 -24 -25
19 40 44 61 105 52 148 -6 27 -6 27 9 9 9 -11 19 -35 22 -54z m474 8 c0 -44
-21 -75 -60 -88 -38 -14 -38 -8 0 34 18 20 33 51 36 75 8 48 24 34 24 -21z
m-290 -24 c0 -51 -30 -89 -85 -112 l-40 -16 32 34 c38 39 63 95 63 140 1 31 1
32 15 14 8 -11 15 -38 15 -60z"/>
</g>
</svg>
